# xmcd CD database file
#
# Track frame offsets:
#	150
#	14994
#	29056
#	48280
#	65062
#	76239
#	93900
#	114170
#	136497
#	150677
#	167640
#	181103
#
# Disc length: 2620 seconds
#
# Revision: 0
# Processed by: cddbd v1.5PL3 Copyright (c) Steve Scherf et al.
# Submitted via: CDex 1.51
#
DISCID=9a0a3a0c
DTITLE=Mark Stafford - Harpspace
DYEAR=2003
DGENRE=Blues
TTITLE0=Harpspace
TTITLE1=Gangster of Love
TTITLE2=I'll Be Back
TTITLE3=Bunnie Bop Boogie
TTITLE4=Party Girl
TTITLE5=Ruby
TTITLE6=I'm A Lovin Man
TTITLE7=Take A Step Back
TTITLE8=Shame Shame Shame
TTITLE9=Follow My Heart
TTITLE10=I'm Coming Home
TTITLE11=I've Had My Fun
EXTD=YEAR: 2003
EXTT0=
EXTT1=
EXTT2=
EXTT3=
EXTT4=
EXTT5=
EXTT6=
EXTT7=
EXTT8=
EXTT9=
EXTT10=
EXTT11=
PLAYORDER=
